<mxfile host="app.diagrams.net" agent="Mozilla/5.0 (Windows NT 10.0; Win64; x64) AppleWebKit/537.36 (KHTML, like Gecko) Chrome/134.0.0.0 Safari/537.36" version="26.2.9">
  <diagram name="第 1 页" id="JWdXcz2Uzc8LXSmKYVa5">
    <mxGraphModel dx="1556" dy="815" grid="1" gridSize="10" guides="1" tooltips="1" connect="1" arrows="1" fold="1" page="1" pageScale="1" pageWidth="827" pageHeight="1169" math="0" shadow="0">
      <root>
        <mxCell id="0" />
        <mxCell id="1" parent="0" />
        <mxCell id="3o_qSuuecekUCV9NZZC6-5" style="edgeStyle=orthogonalEdgeStyle;rounded=0;orthogonalLoop=1;jettySize=auto;html=1;" edge="1" parent="1" source="3o_qSuuecekUCV9NZZC6-2" target="3o_qSuuecekUCV9NZZC6-3">
          <mxGeometry relative="1" as="geometry" />
        </mxCell>
        <mxCell id="3o_qSuuecekUCV9NZZC6-2" value="发起访问" style="ellipse;whiteSpace=wrap;html=1;" vertex="1" parent="1">
          <mxGeometry x="330" y="130" width="90" height="60" as="geometry" />
        </mxCell>
        <mxCell id="3o_qSuuecekUCV9NZZC6-6" style="edgeStyle=orthogonalEdgeStyle;rounded=0;orthogonalLoop=1;jettySize=auto;html=1;entryX=0.5;entryY=0;entryDx=0;entryDy=0;" edge="1" parent="1" source="3o_qSuuecekUCV9NZZC6-3" target="3o_qSuuecekUCV9NZZC6-4">
          <mxGeometry relative="1" as="geometry" />
        </mxCell>
        <mxCell id="3o_qSuuecekUCV9NZZC6-3" value="JWT token验证身份" style="rounded=0;whiteSpace=wrap;html=1;" vertex="1" parent="1">
          <mxGeometry x="330" y="250" width="90" height="40" as="geometry" />
        </mxCell>
        <mxCell id="3o_qSuuecekUCV9NZZC6-4" value="权限验证" style="rounded=0;whiteSpace=wrap;html=1;" vertex="1" parent="1">
          <mxGeometry x="323.13" y="370" width="103.75" height="40" as="geometry" />
        </mxCell>
      </root>
    </mxGraphModel>
  </diagram>
</mxfile>
